<?xml version="1.0" encoding="UTF-8" standalone="no"?>
<!-- Created with Inkscape (http://www.inkscape.org/) -->

<svg
   xmlns:dc="http://purl.org/dc/elements/1.1/"
   xmlns:cc="http://creativecommons.org/ns#"
   xmlns:rdf="http://www.w3.org/1999/02/22-rdf-syntax-ns#"
   xmlns:svg="http://www.w3.org/2000/svg"
   xmlns="http://www.w3.org/2000/svg"
   xmlns:sodipodi="http://sodipodi.sourceforge.net/DTD/sodipodi-0.dtd"
   xmlns:inkscape="http://www.inkscape.org/namespaces/inkscape"
   width="73"
   height="30"
   viewBox="0 0 19.314585 7.9375002"
   version="1.1"
   id="svg8"
   sodipodi:docname="bones-logo.svg"
   inkscape:version="0.92.4 (f8dce91, 2019-08-02)">
  <defs
     id="defs2">
    <clipPath
       clipPathUnits="userSpaceOnUse"
       id="clipPath847">
      <rect
         style="opacity:1;fill:none;fill-opacity:1;stroke:#000000;stroke-width:1.19999993;stroke-miterlimit:4;stroke-dasharray:none;stroke-opacity:1"
         id="rect849"
         width="139.82143"
         height="41.964287"
         x="189.30368"
         y="543.70404" />
    </clipPath>
    <clipPath
       clipPathUnits="userSpaceOnUse"
       id="clipPath847-2">
      <rect
         style="opacity:1;fill:none;fill-opacity:1;stroke:#000000;stroke-width:1.19999993;stroke-miterlimit:4;stroke-dasharray:none;stroke-opacity:1"
         id="rect849-0"
         width="139.82143"
         height="41.964287"
         x="189.30368"
         y="543.70404" />
    </clipPath>
  </defs>
  <sodipodi:namedview
     id="base"
     pagecolor="#ffffff"
     bordercolor="#666666"
     borderopacity="1.0"
     inkscape:pageopacity="0.0"
     inkscape:pageshadow="2"
     inkscape:zoom="7.9195959"
     inkscape:cx="11.933419"
     inkscape:cy="9.7995421"
     inkscape:document-units="px"
     inkscape:current-layer="flowRoot815"
     showgrid="false"
     units="px"
     inkscape:window-width="1855"
     inkscape:window-height="1056"
     inkscape:window-x="65"
     inkscape:window-y="24"
     inkscape:window-maximized="1"
     inkscape:pagecheckerboard="true" />
  <metadata
     id="metadata5">
    <rdf:RDF>
      <cc:Work
         rdf:about="">
        <dc:format>image/svg+xml</dc:format>
        <dc:type
           rdf:resource="http://purl.org/dc/dcmitype/StillImage" />
        <dc:title></dc:title>
      </cc:Work>
    </rdf:RDF>
  </metadata>
  <g
     inkscape:label="Layer 1"
     inkscape:groupmode="layer"
     id="layer1"
     transform="translate(0,-289.06249)">
    <g
       aria-label="[bones]"
       transform="matrix(0.14191425,0,0,0.14368065,-27.045318,211.79665)"
       clip-path="url(#clipPath847)"
       style="font-style:normal;font-weight:normal;font-size:40px;line-height:1.25;font-family:sans-serif;letter-spacing:0px;word-spacing:0px;fill:#fff3f5;fill-opacity:1;stroke:none;stroke-opacity:1"
       id="flowRoot815">
      <path
         d="m 201.96,545.7662 v 4.72 h -4.6 v 28.44 h 4.6 v 4.68 h -10.6 v -37.84 z"
         style="font-style:normal;font-variant:normal;font-weight:bold;font-stretch:normal;font-size:40px;font-family:'Fira Sans';-inkscape-font-specification:'Fira Sans, Bold';font-variant-ligatures:normal;font-variant-caps:normal;font-variant-numeric:normal;font-feature-settings:normal;text-align:start;writing-mode:lr-tb;text-anchor:start;fill:#fff3f5;fill-opacity:1;stroke:none;stroke-opacity:1"
         id="path930" />
      <path
         d="m 217.48875,556.7662 q 3.8,0 5.84,3 2.04,2.96 2.04,8.32 0,3.28 -1.04,5.84 -1,2.56 -2.92,4 -1.88,1.44 -4.48,1.44 -1.72,0 -3.16,-0.72 -1.4,-0.72 -2.4,-2 l -0.32,2.04 h -5.6 v -29.68 l 6.32,-0.68 v 11.28 q 0.96,-1.32 2.44,-2.08 1.52,-0.76 3.28,-0.76 z m -2.4,18 q 3.72,0 3.72,-6.68 0,-3.8 -0.88,-5.24 -0.88,-1.44 -2.56,-1.44 -2.12,0 -3.6,2.48 v 8.84 q 0.6,0.96 1.44,1.52 0.88,0.52 1.88,0.52 z"
         style="font-style:normal;font-variant:normal;font-weight:bold;font-stretch:normal;font-size:40px;font-family:'Fira Sans';-inkscape-font-specification:'Fira Sans, Bold';font-variant-ligatures:normal;font-variant-caps:normal;font-variant-numeric:normal;font-feature-settings:normal;text-align:start;writing-mode:lr-tb;text-anchor:start;fill:#fff3f5;fill-opacity:1;stroke:none;stroke-opacity:1"
         id="path932" />
      <path
         d="m 238.555,556.7662 q 4.88,0 7.64,3 2.76,2.96 2.76,8.32 0,3.4 -1.28,5.96 -1.24,2.52 -3.6,3.92 -2.32,1.4 -5.52,1.4 -4.84,0 -7.64,-2.96 -2.76,-3 -2.76,-8.36 0,-3.4 1.24,-5.92 1.28,-2.56 3.6,-3.96 2.36,-1.4 5.56,-1.4 z m 0,4.64 q -1.92,0 -2.88,1.64 -0.96,1.6 -0.96,5 0,3.48 0.92,5.08 0.96,1.6 2.92,1.6 1.92,0 2.88,-1.6 0.96,-1.64 0.96,-5.04 0,-3.48 -0.96,-5.08 -0.92,-1.6 -2.88,-1.6 z"
         style="font-style:normal;font-variant:normal;font-weight:bold;font-stretch:normal;font-size:40px;font-family:'Fira Sans';-inkscape-font-specification:'Fira Sans, Bold';font-variant-ligatures:normal;font-variant-caps:normal;font-variant-numeric:normal;font-feature-settings:normal;text-align:start;writing-mode:lr-tb;text-anchor:start;fill:#fff3f5;fill-opacity:1;stroke:none;stroke-opacity:1"
         id="path934" />
      <path
         d="m 265.15438,556.7662 q 2.75999,0 4.31999,1.68 1.56,1.68 1.56,4.72 v 15.52 h -6.31999 v -14.44 q 0,-1.6 -0.52001,-2.2 -0.47999,-0.64 -1.47999,-0.64 -1.92001,0 -3.68001,2.76 v 14.52 h -6.32 v -21.24 h 5.52 l 0.44,2.52 q 1.36,-1.6 2.92001,-2.4 1.59999,-0.8 3.56,-0.8 z"
         style="font-style:normal;font-variant:normal;font-weight:bold;font-stretch:normal;font-size:40px;font-family:'Fira Sans';-inkscape-font-specification:'Fira Sans, Bold';font-variant-ligatures:normal;font-variant-caps:normal;font-variant-numeric:normal;font-feature-settings:normal;text-align:start;writing-mode:lr-tb;text-anchor:start;fill:#fff3f5;fill-opacity:1;stroke:none;stroke-opacity:1"
         id="path936" />
      <path
         d="m 294.28125,567.6462 q 0,1.32 -0.12,2.28 h -13.16 q 0.32,2.68 1.52,3.76 1.2,1.08 3.32,1.08 1.28,0 2.48,-0.44 1.2,-0.48 2.6,-1.44 l 2.6,3.52 q -3.72,2.96 -8.28,2.96 -5.16,0 -7.92,-3.04 -2.76,-3.04 -2.76,-8.16 0,-3.24 1.16,-5.8 1.16,-2.6 3.4,-4.08 2.24,-1.52 5.36,-1.52 4.6,0 7.2,2.88 2.6,2.88 2.6,8 z m -6.2,-1.8 q -0.08,-4.88 -3.44,-4.88 -1.64,0 -2.56,1.2 -0.88,1.2 -1.08,3.96 h 7.08 z"
         style="font-style:normal;font-variant:normal;font-weight:bold;font-stretch:normal;font-size:40px;font-family:'Fira Sans';-inkscape-font-specification:'Fira Sans, Bold';font-variant-ligatures:normal;font-variant-caps:normal;font-variant-numeric:normal;font-feature-settings:normal;text-align:start;writing-mode:lr-tb;text-anchor:start;fill:#fff3f5;fill-opacity:1;stroke:none;stroke-opacity:1"
         id="path938" />
      <path
         d="m 305.35062,556.7662 q 2.28,0 4.28,0.68 2,0.68 3.52,1.92 l -2.32,3.56 q -2.6,-1.64 -5.24,-1.64 -1.24,0 -1.92,0.44 -0.64,0.4 -0.64,1.16 0,0.6 0.28001,1 0.31999,0.36 1.24,0.76 0.91999,0.4 2.83999,0.96 3.32,0.96 4.92001,2.52 1.63999,1.52 1.63999,4.24 0,2.16 -1.24,3.76 -1.24,1.56 -3.39999,2.4 -2.16001,0.84 -4.80001,0.84 -2.68,0 -5,-0.84 -2.28,-0.84 -3.88,-2.32 l 3.08,-3.44 q 2.68,2.08 5.64,2.08 1.44,0 2.24,-0.52 0.84001,-0.52 0.84001,-1.48 0,-0.76 -0.32,-1.2 -0.32001,-0.44 -1.24,-0.8 -0.92001,-0.4 -2.92001,-0.96 -3.16,-0.92 -4.72,-2.56 -1.56,-1.64 -1.56,-4.08 0,-1.84 1.04,-3.28 1.08,-1.48 3.04001,-2.32 2,-0.88 4.59999,-0.88 z"
         style="font-style:normal;font-variant:normal;font-weight:bold;font-stretch:normal;font-size:40px;font-family:'Fira Sans';-inkscape-font-specification:'Fira Sans, Bold';font-variant-ligatures:normal;font-variant-caps:normal;font-variant-numeric:normal;font-feature-settings:normal;text-align:start;writing-mode:lr-tb;text-anchor:start;fill:#fff3f5;fill-opacity:1;stroke:none;stroke-opacity:1"
         id="path940" />
      <path
         d="m 326.2875,545.7662 v 37.84 h -10.6 v -4.72 h 4.6 v -28.4 h -4.6 v -4.72 z"
         style="font-style:normal;font-variant:normal;font-weight:bold;font-stretch:normal;font-size:40px;font-family:'Fira Sans';-inkscape-font-specification:'Fira Sans, Bold';font-variant-ligatures:normal;font-variant-caps:normal;font-variant-numeric:normal;font-feature-settings:normal;text-align:start;writing-mode:lr-tb;text-anchor:start;fill:#fff3f5;fill-opacity:1;stroke:none;stroke-opacity:1"
         id="path942" />
    </g>
  </g>
</svg>
